<svg xmlns="http://www.w3.org/2000/svg" xmlns:xlink="http://www.w3.org/1999/xlink" width="736" zoomAndPan="magnify" viewBox="0 0 552 356.999992" height="476" preserveAspectRatio="xMidYMid meet" version="1.0"><defs><clipPath id="46c2307d5e"><path d="M 70 57 L 325 57 L 325 328 L 70 328 Z M 70 57 " clip-rule="nonzero"/></clipPath><clipPath id="4d6df1b3c3"><path d="M 52.414062 63.128906 L 261.25 -0.140625 L 350.351562 293.960938 L 141.515625 357.230469 Z M 52.414062 63.128906 " clip-rule="nonzero"/></clipPath><clipPath id="da0574892c"><path d="M 52.414062 63.128906 L 261.25 -0.140625 L 350.351562 293.960938 L 141.515625 357.230469 Z M 52.414062 63.128906 " clip-rule="nonzero"/></clipPath><clipPath id="4a78f1ea53"><path d="M 52.414062 63.128906 L 261.25 -0.140625 L 350.351562 293.960938 L 141.515625 357.230469 Z M 52.414062 63.128906 " clip-rule="nonzero"/></clipPath><clipPath id="61d405c520"><path d="M 179 80 L 304 80 L 304 308 L 179 308 Z M 179 80 " clip-rule="nonzero"/></clipPath><clipPath id="9d22126713"><path d="M 52.414062 63.128906 L 261.25 -0.140625 L 350.351562 293.960938 L 141.515625 357.230469 Z M 52.414062 63.128906 " clip-rule="nonzero"/></clipPath><clipPath id="3c7a445352"><path d="M 52.414062 63.128906 L 261.25 -0.140625 L 350.351562 293.960938 L 141.515625 357.230469 Z M 52.414062 63.128906 " clip-rule="nonzero"/></clipPath><clipPath id="35f3d1bd32"><path d="M 52.414062 63.128906 L 261.25 -0.140625 L 350.351562 293.960938 L 141.515625 357.230469 Z M 52.414062 63.128906 " clip-rule="nonzero"/></clipPath><clipPath id="2edf6e0082"><path d="M 142 185 L 212 185 L 212 230 L 142 230 Z M 142 185 " clip-rule="nonzero"/></clipPath><clipPath id="bca31b75cb"><path d="M 52.414062 63.128906 L 261.25 -0.140625 L 350.351562 293.960938 L 141.515625 357.230469 Z M 52.414062 63.128906 " clip-rule="nonzero"/></clipPath><clipPath id="95aee640ee"><path d="M 52.414062 63.128906 L 261.25 -0.140625 L 350.351562 293.960938 L 141.515625 357.230469 Z M 52.414062 63.128906 " clip-rule="nonzero"/></clipPath><clipPath id="ede8e27841"><path d="M 52.414062 63.128906 L 261.25 -0.140625 L 350.351562 293.960938 L 141.515625 357.230469 Z M 52.414062 63.128906 " clip-rule="nonzero"/></clipPath><clipPath id="b9cf8ab422"><path d="M 122 132 L 196 132 L 196 178 L 122 178 Z M 122 132 " clip-rule="nonzero"/></clipPath><clipPath id="39bd1b385f"><path d="M 52.414062 63.128906 L 261.25 -0.140625 L 350.351562 293.960938 L 141.515625 357.230469 Z M 52.414062 63.128906 " clip-rule="nonzero"/></clipPath><clipPath id="c3f3ad9360"><path d="M 52.414062 63.128906 L 261.25 -0.140625 L 350.351562 293.960938 L 141.515625 357.230469 Z M 52.414062 63.128906 " clip-rule="nonzero"/></clipPath><clipPath id="eaa9573a27"><path d="M 52.414062 63.128906 L 261.25 -0.140625 L 350.351562 293.960938 L 141.515625 357.230469 Z M 52.414062 63.128906 " clip-rule="nonzero"/></clipPath><clipPath id="21369ddde5"><path d="M 158 234 L 233 234 L 233 282 L 158 282 Z M 158 234 " clip-rule="nonzero"/></clipPath><clipPath id="ab5803b32b"><path d="M 52.414062 63.128906 L 261.25 -0.140625 L 350.351562 293.960938 L 141.515625 357.230469 Z M 52.414062 63.128906 " clip-rule="nonzero"/></clipPath><clipPath id="b30dbc1ff4"><path d="M 52.414062 63.128906 L 261.25 -0.140625 L 350.351562 293.960938 L 141.515625 357.230469 Z M 52.414062 63.128906 " clip-rule="nonzero"/></clipPath><clipPath id="6e5daa699e"><path d="M 52.414062 63.128906 L 261.25 -0.140625 L 350.351562 293.960938 L 141.515625 357.230469 Z M 52.414062 63.128906 " clip-rule="nonzero"/></clipPath><clipPath id="ef9881be9d"><path d="M 101 38 L 146 38 L 146 88 L 101 88 Z M 101 38 " clip-rule="nonzero"/></clipPath><clipPath id="6b8ba5ea60"><path d="M 52.414062 63.128906 L 261.25 -0.140625 L 350.351562 293.960938 L 141.515625 357.230469 Z M 52.414062 63.128906 " clip-rule="nonzero"/></clipPath><clipPath id="ee8317b940"><path d="M 52.414062 63.128906 L 261.25 -0.140625 L 350.351562 293.960938 L 141.515625 357.230469 Z M 52.414062 63.128906 " clip-rule="nonzero"/></clipPath><clipPath id="aae32ac90e"><path d="M 52.414062 63.128906 L 261.25 -0.140625 L 350.351562 293.960938 L 141.515625 357.230469 Z M 52.414062 63.128906 " clip-rule="nonzero"/></clipPath><clipPath id="a4edcba54d"><path d="M 139 27 L 184 27 L 184 77 L 139 77 Z M 139 27 " clip-rule="nonzero"/></clipPath><clipPath id="73fcccdb69"><path d="M 52.414062 63.128906 L 261.25 -0.140625 L 350.351562 293.960938 L 141.515625 357.230469 Z M 52.414062 63.128906 " clip-rule="nonzero"/></clipPath><clipPath id="840eaa9fad"><path d="M 52.414062 63.128906 L 261.25 -0.140625 L 350.351562 293.960938 L 141.515625 357.230469 Z M 52.414062 63.128906 " clip-rule="nonzero"/></clipPath><clipPath id="9f9c3f8a5e"><path d="M 52.414062 63.128906 L 261.25 -0.140625 L 350.351562 293.960938 L 141.515625 357.230469 Z M 52.414062 63.128906 " clip-rule="nonzero"/></clipPath><clipPath id="80f092f368"><path d="M 177 15 L 222 15 L 222 66 L 177 66 Z M 177 15 " clip-rule="nonzero"/></clipPath><clipPath id="04a399c120"><path d="M 52.414062 63.128906 L 261.25 -0.140625 L 350.351562 293.960938 L 141.515625 357.230469 Z M 52.414062 63.128906 " clip-rule="nonzero"/></clipPath><clipPath id="c857f790f2"><path d="M 52.414062 63.128906 L 261.25 -0.140625 L 350.351562 293.960938 L 141.515625 357.230469 Z M 52.414062 63.128906 " clip-rule="nonzero"/></clipPath><clipPath id="909fafd59e"><path d="M 52.414062 63.128906 L 261.25 -0.140625 L 350.351562 293.960938 L 141.515625 357.230469 Z M 52.414062 63.128906 " clip-rule="nonzero"/></clipPath><clipPath id="da27e88151"><path d="M 187 112 L 282 112 L 282 281 L 187 281 Z M 187 112 " clip-rule="nonzero"/></clipPath><clipPath id="7beca13e33"><path d="M 52.414062 63.128906 L 261.25 -0.140625 L 350.351562 293.960938 L 141.515625 357.230469 Z M 52.414062 63.128906 " clip-rule="nonzero"/></clipPath><clipPath id="c39a0553fb"><path d="M 52.414062 63.128906 L 261.25 -0.140625 L 350.351562 293.960938 L 141.515625 357.230469 Z M 52.414062 63.128906 " clip-rule="nonzero"/></clipPath><clipPath id="b283151b5d"><path d="M 52.414062 63.128906 L 261.25 -0.140625 L 350.351562 293.960938 L 141.515625 357.230469 Z M 52.414062 63.128906 " clip-rule="nonzero"/></clipPath><clipPath id="07291132b9"><path d="M 238 60 L 483 60 L 483 321 L 238 321 Z M 238 60 " clip-rule="nonzero"/></clipPath><clipPath id="443ae3c644"><path d="M 298.976562 5.28125 L 499.140625 66.117188 L 413.269531 348.648438 L 213.105469 287.8125 Z M 298.976562 5.28125 " clip-rule="nonzero"/></clipPath><clipPath id="da0b150f95"><path d="M 298.976562 5.28125 L 499.140625 66.117188 L 413.269531 348.648438 L 213.105469 287.8125 Z M 298.976562 5.28125 " clip-rule="nonzero"/></clipPath><clipPath id="8dc1aae8ab"><path d="M 298.976562 5.28125 L 499.140625 66.117188 L 413.269531 348.648438 L 213.105469 287.8125 Z M 298.976562 5.28125 " clip-rule="nonzero"/></clipPath><clipPath id="54ec079ec9"><path d="M 318 107 L 459 107 L 459 303 L 318 303 Z M 318 107 " clip-rule="nonzero"/></clipPath><clipPath id="e2f988cf6d"><path d="M 298.976562 5.28125 L 499.140625 66.117188 L 413.269531 348.648438 L 213.105469 287.8125 Z M 298.976562 5.28125 " clip-rule="nonzero"/></clipPath><clipPath id="1bbff6074f"><path d="M 298.976562 5.28125 L 499.140625 66.117188 L 413.269531 348.648438 L 213.105469 287.8125 Z M 298.976562 5.28125 " clip-rule="nonzero"/></clipPath><clipPath id="3cbbfa76b2"><path d="M 298.976562 5.28125 L 499.140625 66.117188 L 413.269531 348.648438 L 213.105469 287.8125 Z M 298.976562 5.28125 " clip-rule="nonzero"/></clipPath><clipPath id="a4048d535d"><path d="M 290 113 L 370 113 L 370 209 L 290 209 Z M 290 113 " clip-rule="nonzero"/></clipPath><clipPath id="eaff6e837c"><path d="M 298.976562 5.28125 L 499.140625 66.117188 L 413.269531 348.648438 L 213.105469 287.8125 Z M 298.976562 5.28125 " clip-rule="nonzero"/></clipPath><clipPath id="0242e66820"><path d="M 298.976562 5.28125 L 499.140625 66.117188 L 413.269531 348.648438 L 213.105469 287.8125 Z M 298.976562 5.28125 " clip-rule="nonzero"/></clipPath><clipPath id="6fba62a1b5"><path d="M 298.976562 5.28125 L 499.140625 66.117188 L 413.269531 348.648438 L 213.105469 287.8125 Z M 298.976562 5.28125 " clip-rule="nonzero"/></clipPath><clipPath id="fd5c6550ca"><path d="M 279 204 L 335 204 L 335 275 L 279 275 Z M 279 204 " clip-rule="nonzero"/></clipPath><clipPath id="5e59b6cf09"><path d="M 298.976562 5.28125 L 499.140625 66.117188 L 413.269531 348.648438 L 213.105469 287.8125 Z M 298.976562 5.28125 " clip-rule="nonzero"/></clipPath><clipPath id="48c2fca92f"><path d="M 298.976562 5.28125 L 499.140625 66.117188 L 413.269531 348.648438 L 213.105469 287.8125 Z M 298.976562 5.28125 " clip-rule="nonzero"/></clipPath><clipPath id="e13902b732"><path d="M 298.976562 5.28125 L 499.140625 66.117188 L 413.269531 348.648438 L 213.105469 287.8125 Z M 298.976562 5.28125 " clip-rule="nonzero"/></clipPath><clipPath id="0bdebacef3"><path d="M 306 10 L 355 10 L 355 61 L 306 61 Z M 306 10 " clip-rule="nonzero"/></clipPath><clipPath id="bdf4c7d842"><path d="M 298.976562 5.28125 L 499.140625 66.117188 L 413.269531 348.648438 L 213.105469 287.8125 Z M 298.976562 5.28125 " clip-rule="nonzero"/></clipPath><clipPath id="8ab9fecb0b"><path d="M 298.976562 5.28125 L 499.140625 66.117188 L 413.269531 348.648438 L 213.105469 287.8125 Z M 298.976562 5.28125 " clip-rule="nonzero"/></clipPath><clipPath id="925170db00"><path d="M 298.976562 5.28125 L 499.140625 66.117188 L 413.269531 348.648438 L 213.105469 287.8125 Z M 298.976562 5.28125 " clip-rule="nonzero"/></clipPath><clipPath id="2d03a6a8c5"><path d="M 356 23 L 396 23 L 396 70 L 356 70 Z M 356 23 " clip-rule="nonzero"/></clipPath><clipPath id="44bb390158"><path d="M 298.976562 5.28125 L 499.140625 66.117188 L 413.269531 348.648438 L 213.105469 287.8125 Z M 298.976562 5.28125 " clip-rule="nonzero"/></clipPath><clipPath id="2d396edabe"><path d="M 298.976562 5.28125 L 499.140625 66.117188 L 413.269531 348.648438 L 213.105469 287.8125 Z M 298.976562 5.28125 " clip-rule="nonzero"/></clipPath><clipPath id="544aa71771"><path d="M 298.976562 5.28125 L 499.140625 66.117188 L 413.269531 348.648438 L 213.105469 287.8125 Z M 298.976562 5.28125 " clip-rule="nonzero"/></clipPath><clipPath id="e8d57543b6"><path d="M 389 36 L 444 36 L 444 88 L 389 88 Z M 389 36 " clip-rule="nonzero"/></clipPath><clipPath id="f60de4ec2f"><path d="M 298.976562 5.28125 L 499.140625 66.117188 L 413.269531 348.648438 L 213.105469 287.8125 Z M 298.976562 5.28125 " clip-rule="nonzero"/></clipPath><clipPath id="500fa1aa9c"><path d="M 298.976562 5.28125 L 499.140625 66.117188 L 413.269531 348.648438 L 213.105469 287.8125 Z M 298.976562 5.28125 " clip-rule="nonzero"/></clipPath><clipPath id="45af9b6042"><path d="M 298.976562 5.28125 L 499.140625 66.117188 L 413.269531 348.648438 L 213.105469 287.8125 Z M 298.976562 5.28125 " clip-rule="nonzero"/></clipPath><clipPath id="bd83728b3d"><path d="M 438 51 L 474 51 L 474 99 L 438 99 Z M 438 51 " clip-rule="nonzero"/></clipPath><clipPath id="ea94149053"><path d="M 298.976562 5.28125 L 499.140625 66.117188 L 413.269531 348.648438 L 213.105469 287.8125 Z M 298.976562 5.28125 " clip-rule="nonzero"/></clipPath><clipPath id="ccb2ec4ffe"><path d="M 298.976562 5.28125 L 499.140625 66.117188 L 413.269531 348.648438 L 213.105469 287.8125 Z M 298.976562 5.28125 " clip-rule="nonzero"/></clipPath><clipPath id="eb218167d5"><path d="M 298.976562 5.28125 L 499.140625 66.117188 L 413.269531 348.648438 L 213.105469 287.8125 Z M 298.976562 5.28125 " clip-rule="nonzero"/></clipPath><clipPath id="c8e6330b50"><path d="M 326 183 L 413 183 L 413 277 L 326 277 Z M 326 183 " clip-rule="nonzero"/></clipPath><clipPath id="fbac1cdf56"><path d="M 298.976562 5.28125 L 499.140625 66.117188 L 413.269531 348.648438 L 213.105469 287.8125 Z M 298.976562 5.28125 " clip-rule="nonzero"/></clipPath><clipPath id="075c2f461d"><path d="M 298.976562 5.28125 L 499.140625 66.117188 L 413.269531 348.648438 L 213.105469 287.8125 Z M 298.976562 5.28125 " clip-rule="nonzero"/></clipPath><clipPath id="ac5e12016d"><path d="M 298.976562 5.28125 L 499.140625 66.117188 L 413.269531 348.648438 L 213.105469 287.8125 Z M 298.976562 5.28125 " clip-rule="nonzero"/></clipPath><clipPath id="9de15f03e2"><path d="M 361 132 L 433 132 L 433 177 L 361 177 Z M 361 132 " clip-rule="nonzero"/></clipPath><clipPath id="0297a7a753"><path d="M 298.976562 5.28125 L 499.140625 66.117188 L 413.269531 348.648438 L 213.105469 287.8125 Z M 298.976562 5.28125 " clip-rule="nonzero"/></clipPath><clipPath id="8630f2b072"><path d="M 298.976562 5.28125 L 499.140625 66.117188 L 413.269531 348.648438 L 213.105469 287.8125 Z M 298.976562 5.28125 " clip-rule="nonzero"/></clipPath><clipPath id="59937c021b"><path d="M 298.976562 5.28125 L 499.140625 66.117188 L 413.269531 348.648438 L 213.105469 287.8125 Z M 298.976562 5.28125 " clip-rule="nonzero"/></clipPath></defs><g clip-path="url(#46c2307d5e)"><g clip-path="url(#4d6df1b3c3)"><g clip-path="url(#da0574892c)"><g clip-path="url(#4a78f1ea53)"><path fill="#264de4" d="M 245.839844 325.613281 L 153.480469 327.808594 L 70.0625 120.886719 L 278.699219 57.675781 L 324.121094 276.070312 L 245.84375 325.609375 Z M 245.839844 325.613281 " fill-opacity="1" fill-rule="nonzero"/></g></g></g></g><g clip-path="url(#61d405c520)"><g clip-path="url(#9d22126713)"><g clip-path="url(#3c7a445352)"><g clip-path="url(#35f3d1bd32)"><path fill="#2965f1" d="M 303.75 267.464844 L 264.9375 80.832031 L 179.652344 106.667969 L 240.492188 307.488281 L 303.746094 267.460938 Z M 303.75 267.464844 " fill-opacity="1" fill-rule="nonzero"/></g></g></g></g><g clip-path="url(#2edf6e0082)"><g clip-path="url(#bca31b75cb)"><g clip-path="url(#95aee640ee)"><g clip-path="url(#ede8e27841)"><path fill="#ebebeb" d="M 142.757812 203.964844 L 152.996094 229.335938 L 211.449219 211.625 L 203.550781 185.546875 Z M 142.757812 203.964844 " fill-opacity="1" fill-rule="nonzero"/></g></g></g></g><g clip-path="url(#b9cf8ab422)"><g clip-path="url(#39bd1b385f)"><g clip-path="url(#c3f3ad9360)"><g clip-path="url(#eaa9573a27)"><path fill="#ebebeb" d="M 122.054688 152.589844 L 132.332031 177.957031 L 195.457031 158.832031 L 187.550781 132.746094 Z M 122.054688 152.589844 " fill-opacity="1" fill-rule="nonzero"/></g></g></g></g><g clip-path="url(#21369ddde5)"><g clip-path="url(#ab5803b32b)"><g clip-path="url(#b30dbc1ff4)"><g clip-path="url(#6e5daa699e)"><path fill="#ebebeb" d="M 224.070312 253.285156 L 223.96875 253.355469 L 192.5 254.320312 L 184.335938 234.082031 L 158.117188 242.023438 L 174.183594 281.875 L 232.179688 280.496094 L 232.292969 280.425781 Z M 224.070312 253.285156 " fill-opacity="1" fill-rule="nonzero"/></g></g></g></g><g clip-path="url(#ef9881be9d)"><g clip-path="url(#6b8ba5ea60)"><g clip-path="url(#ee8317b940)"><g clip-path="url(#aae32ac90e)"><path fill="#000000" d="M 101.652344 48.210938 L 133.289062 38.628906 L 137.292969 51.839844 L 118.886719 57.414062 L 122.886719 70.625 L 141.292969 65.050781 L 145.296875 78.261719 L 113.660156 87.84375 Z M 101.652344 48.210938 " fill-opacity="1" fill-rule="nonzero"/></g></g></g></g><g clip-path="url(#a4edcba54d)"><g clip-path="url(#73fcccdb69)"><g clip-path="url(#840eaa9fad)"><g clip-path="url(#9f9c3f8a5e)"><path fill="#000000" d="M 139.617188 36.710938 L 171.25 27.125 L 174.730469 38.613281 L 156.328125 44.191406 L 157.027344 46.488281 L 175.425781 40.914062 L 183.433594 67.335938 L 151.796875 76.917969 L 148.144531 64.855469 L 166.554688 59.277344 L 165.855469 56.980469 L 147.445312 62.558594 Z M 139.617188 36.710938 " fill-opacity="1" fill-rule="nonzero"/></g></g></g></g><g clip-path="url(#80f092f368)"><g clip-path="url(#04a399c120)"><g clip-path="url(#c857f790f2)"><g clip-path="url(#909fafd59e)"><path fill="#000000" d="M 177.582031 25.207031 L 209.214844 15.625 L 212.695312 27.113281 L 194.285156 32.691406 L 194.984375 34.988281 L 213.394531 29.410156 L 221.398438 55.832031 L 189.761719 65.417969 L 186.109375 53.355469 L 204.511719 47.78125 L 203.8125 45.480469 L 185.414062 51.054688 Z M 177.582031 25.207031 " fill-opacity="1" fill-rule="nonzero"/></g></g></g></g><g clip-path="url(#da27e88151)"><g clip-path="url(#7beca13e33)"><g clip-path="url(#c39a0553fb)"><g clip-path="url(#b283151b5d)"><path fill="#ffffff" d="M 264.179688 167.179688 L 252.890625 112.953125 L 187.460938 132.773438 L 195.367188 158.859375 L 232.167969 147.710938 L 237.890625 175.144531 L 203.460938 185.574219 L 211.359375 211.652344 L 243.527344 201.90625 L 250.742188 236.65625 L 223.988281 253.339844 L 232.207031 280.46875 L 281.265625 249.433594 L 280.324219 244.902344 L 265.660156 174.371094 Z M 264.179688 167.179688 " fill-opacity="1" fill-rule="nonzero"/></g></g></g></g><g clip-path="url(#07291132b9)"><g clip-path="url(#443ae3c644)"><g clip-path="url(#da0b150f95)"><g clip-path="url(#8dc1aae8ab)"><path fill="#e44d26" d="M 482.210938 121.625 L 401.910156 320.359375 L 313.105469 318.191406 L 238.332031 270.679688 L 282.230469 60.84375 L 482.207031 121.621094 L 482.214844 121.621094 Z M 482.210938 121.625 " fill-opacity="1" fill-rule="nonzero"/></g></g></g></g><g clip-path="url(#54ec079ec9)"><g clip-path="url(#e2f988cf6d)"><g clip-path="url(#1bbff6074f)"><g clip-path="url(#3cbbfa76b2)"><path fill="#f16529" d="M 318.511719 300.863281 L 390.269531 302.617188 L 458.890625 132.785156 L 377.144531 107.9375 L 318.511719 300.859375 Z M 318.511719 300.863281 " fill-opacity="1" fill-rule="nonzero"/></g></g></g></g><g clip-path="url(#a4048d535d)"><g clip-path="url(#eaff6e837c)"><g clip-path="url(#0242e66820)"><g clip-path="url(#6fba62a1b5)"><path fill="#ebebeb" d="M 326.496094 147.289062 L 361.914062 158.050781 L 369.53125 132.992188 L 306.75 113.914062 L 305.308594 120.820312 L 290.472656 191.738281 L 346.5 208.769531 L 354.113281 183.714844 L 320.984375 173.648438 Z M 326.496094 147.289062 " fill-opacity="1" fill-rule="nonzero"/></g></g></g></g><g clip-path="url(#fd5c6550ca)"><g clip-path="url(#5e59b6cf09)"><g clip-path="url(#48c2fca92f)"><g clip-path="url(#e13902b732)"><path fill="#ebebeb" d="M 312.917969 212.25 L 287.785156 204.609375 L 279.332031 245.023438 L 326.285156 274.855469 L 326.414062 274.859375 L 334.335938 248.789062 L 334.21875 248.789062 L 308.625 232.773438 Z M 312.917969 212.25 " fill-opacity="1" fill-rule="nonzero"/></g></g></g></g><g clip-path="url(#0bdebacef3)"><g clip-path="url(#bdf4c7d842)"><g clip-path="url(#8ab9fecb0b)"><g clip-path="url(#925170db00)"><path fill="#000000" d="M 317.710938 10.976562 L 330.433594 14.84375 L 326.609375 27.425781 L 338.25 30.960938 L 342.070312 18.382812 L 354.796875 22.25 L 343.21875 60.347656 L 330.492188 56.480469 L 334.371094 43.722656 L 322.730469 40.183594 L 318.855469 52.941406 L 306.132812 49.074219 Z M 317.710938 10.976562 " fill-opacity="1" fill-rule="nonzero"/></g></g></g></g><g clip-path="url(#2d03a6a8c5)"><g clip-path="url(#44bb390158)"><g clip-path="url(#2d396edabe)"><g clip-path="url(#544aa71771)"><path fill="#000000" d="M 367.6875 39.96875 L 356.488281 36.5625 L 360.328125 23.929688 L 395.460938 34.605469 L 391.621094 47.242188 L 380.410156 43.835938 L 372.671875 69.296875 L 359.949219 65.429688 Z M 367.6875 39.96875 " fill-opacity="1" fill-rule="nonzero"/></g></g></g></g><g clip-path="url(#e8d57543b6)"><g clip-path="url(#f60de4ec2f)"><g clip-path="url(#500fa1aa9c)"><g clip-path="url(#45af9b6042)"><path fill="#000000" d="M 401.035156 36.300781 L 414.296875 40.332031 L 418.390625 56.199219 L 430.609375 45.289062 L 443.882812 49.324219 L 432.304688 87.421875 L 419.636719 83.570312 L 425.375 64.6875 L 412.5 75.574219 L 412.28125 75.507812 L 407.640625 59.300781 L 401.902344 78.183594 L 389.453125 74.398438 Z M 401.035156 36.300781 " fill-opacity="1" fill-rule="nonzero"/></g></g></g></g><g clip-path="url(#bd83728b3d)"><g clip-path="url(#ea94149053)"><g clip-path="url(#ccb2ec4ffe)"><g clip-path="url(#eb218167d5)"><path fill="#000000" d="M 450.214844 51.25 L 462.941406 55.117188 L 455.1875 80.621094 L 473.085938 86.0625 L 469.257812 98.652344 L 438.636719 89.347656 Z M 450.214844 51.25 " fill-opacity="1" fill-rule="nonzero"/></g></g></g></g><g clip-path="url(#c8e6330b50)"><g clip-path="url(#fbac1cdf56)"><g clip-path="url(#075c2f461d)"><g clip-path="url(#ac5e12016d)"><path fill="#ffffff" d="M 346.414062 208.742188 L 377.246094 218.113281 L 364.460938 249.726562 L 334.242188 248.785156 L 326.320312 274.851562 L 381.972656 276.21875 L 383.636719 272.09375 L 409.570312 207.917969 L 412.226562 201.378906 L 354.027344 183.691406 Z M 346.414062 208.742188 " fill-opacity="1" fill-rule="nonzero"/></g></g></g></g><g clip-path="url(#9de15f03e2)"><g clip-path="url(#0297a7a753)"><g clip-path="url(#8630f2b072)"><g clip-path="url(#59937c021b)"><path fill="#ffffff" d="M 361.847656 157.964844 L 361.828125 158.027344 L 422.300781 176.40625 L 424.515625 170.925781 L 429.519531 158.570312 L 432.15625 152.027344 L 369.445312 132.96875 Z M 361.847656 157.964844 " fill-opacity="1" fill-rule="nonzero"/></g></g></g></g></svg>