<svg xmlns="http://www.w3.org/2000/svg" xmlns:xlink="http://www.w3.org/1999/xlink" width="96" zoomAndPan="magnify" viewBox="0 0 72 72" height="96" preserveAspectRatio="xMidYMid meet" version="1.0"><defs><g/></defs><g fill="#8a43f8" fill-opacity="1"><g transform="translate(19.345312, 50.696461)"><g><path d="M 14.828125 -27.710938 L 14.828125 -34.800781 C 6.589844 -34.101562 2.546875 -29.707031 2.546875 -23.316406 C 2.546875 -22.964844 2.546875 -22.617188 2.597656 -22.21875 L 11.484375 -22.21875 L 11.484375 -23.214844 C 11.484375 -25.414062 12.632812 -27.160156 14.828125 -27.710938 Z M 20.621094 -34.648438 L 20.621094 -24.265625 C 20.621094 -21.019531 15.027344 -18.222656 7.238281 -11.285156 C 4.445312 -8.789062 2.445312 -6.140625 2.445312 -2.398438 L 2.445312 0 L 30.90625 0 L 30.90625 -8.4375 L 15.875 -8.4375 C 22.964844 -13.53125 30.503906 -17.175781 30.503906 -24.613281 C 30.503906 -29.90625 26.761719 -33.699219 20.621094 -34.648438 Z M 20.621094 -34.648438 "/></g></g></g></svg>