<svg xmlns="http://www.w3.org/2000/svg" xmlns:xlink="http://www.w3.org/1999/xlink" width="96" zoomAndPan="magnify" viewBox="0 0 72 72" height="96" preserveAspectRatio="xMidYMid meet" version="1.0"><defs><g/></defs><g fill="#8a43f8" fill-opacity="1"><g transform="translate(19.345312, 50.696461)"><g><path d="M 14.679688 -27.960938 L 14.679688 -34.847656 C 7.289062 -34.152344 3.195312 -30.207031 3.195312 -25.5625 L 3.195312 -24.316406 L 11.535156 -24.316406 C 11.535156 -26.011719 12.582031 -27.460938 14.679688 -27.960938 Z M 20.46875 -34.648438 L 20.46875 -24.164062 C 20.46875 -21.71875 18.921875 -20.570312 16.976562 -20.570312 L 14.128906 -20.570312 L 14.128906 -14.429688 L 17.773438 -14.429688 C 19.722656 -14.429688 21.269531 -13.28125 21.269531 -10.835938 L 21.269531 0.25 C 27.960938 -0.898438 30.953125 -4.742188 31.203125 -9.335938 C 31.203125 -13.53125 29.007812 -16.625 25.214844 -17.824219 L 25.214844 -18.023438 C 28.160156 -19.121094 30.207031 -22.167969 30.207031 -25.613281 C 30.207031 -29.90625 26.710938 -33.652344 20.46875 -34.648438 Z M 15.476562 0.597656 L 15.476562 -6.242188 C 11.933594 -6.390625 10.882812 -8.1875 10.882812 -10.335938 L 2.097656 -10.335938 L 2.097656 -9.285156 C 2.097656 -4.042969 6.289062 0.25 15.476562 0.597656 Z M 15.476562 0.597656 "/></g></g></g></svg>