<svg xmlns="http://www.w3.org/2000/svg" xmlns:xlink="http://www.w3.org/1999/xlink" width="96" zoomAndPan="magnify" viewBox="0 0 72 72" height="96" preserveAspectRatio="xMidYMid meet" version="1.0"><defs><g/></defs><g fill="#8a43f8" fill-opacity="1"><g transform="translate(19.345312, 50.696461)"><g><path d="M 12.980469 -34.351562 L 4.894531 -34.351562 L 3.445312 -15.128906 L 11.332031 -14.03125 C 11.882812 -14.679688 12.78125 -16.527344 16.125 -16.527344 C 19.523438 -16.527344 21.367188 -14.328125 21.367188 -11.382812 L 21.367188 0.148438 C 27.511719 -1.296875 31.203125 -5.839844 31.203125 -11.234375 C 31.203125 -18.523438 26.5625 -22.917969 19.273438 -22.917969 C 17.523438 -22.917969 16.027344 -22.617188 14.878906 -22.21875 L 11.933594 -20.671875 Z M 28.660156 -34.351562 L 18.621094 -34.351562 L 17.925781 -25.863281 L 28.660156 -25.863281 Z M 15.578125 -6.289062 C 12.382812 -6.492188 10.734375 -8.636719 10.734375 -11.082031 L 1.945312 -11.082031 C 1.945312 -4.445312 6.589844 0.101562 15.578125 0.550781 Z M 15.578125 -6.289062 "/></g></g></g></svg>