<svg xmlns="http://www.w3.org/2000/svg" xmlns:xlink="http://www.w3.org/1999/xlink" width="46" zoomAndPan="magnify" viewBox="0 0 34.5 34.5" height="46" preserveAspectRatio="xMidYMid meet" version="1.0"><defs><clipPath id="id1"><path d="M 1.105469 0.832031 L 33.355469 0.832031 L 33.355469 33.832031 L 1.105469 33.832031 Z M 1.105469 0.832031 " clip-rule="nonzero"/></clipPath></defs><path fill="#8a43f8" d="M 12.796875 12.433594 C 12.796875 9.082031 16.035156 8.0625 18.824219 11.371094 C 21.617188 8.0625 24.855469 9.082031 24.855469 12.433594 C 24.855469 13.65625 24.480469 14.664062 23.921875 15.484375 C 24.769531 14.5 25.378906 13.222656 25.378906 11.589844 C 25.378906 7.949219 21.859375 6.417969 18.824219 10.011719 C 15.792969 6.417969 12.273438 7.949219 12.273438 11.589844 C 12.273438 13.222656 12.882812 14.5 13.730469 15.484375 C 13.171875 14.664062 12.796875 13.65625 12.796875 12.433594 " fill-opacity="1" fill-rule="nonzero"/><path fill="#8a43f8" d="M 13.742188 10.625 C 17.523438 11.160156 18.824219 14.988281 18.824219 14.988281 C 18.824219 14.988281 20.128906 11.160156 23.910156 10.625 C 23.910156 10.625 23.078125 10.96875 22.796875 11.65625 C 22.550781 12.269531 23.398438 14.203125 20.726562 14.71875 C 19.792969 14.898438 19.050781 15.609375 18.835938 16.539062 C 18.832031 16.550781 18.828125 16.566406 18.824219 16.578125 C 18.824219 16.566406 18.820312 16.550781 18.816406 16.539062 C 18.601562 15.609375 17.859375 14.898438 16.925781 14.71875 C 14.253906 14.203125 15.101562 12.269531 14.851562 11.65625 C 14.574219 10.96875 13.742188 10.625 13.742188 10.625 " fill-opacity="1" fill-rule="nonzero"/><g clip-path="url(#id1)"><path fill="#8a43f8" d="M 17.234375 0.832031 C 8.328125 0.832031 1.109375 8.097656 1.109375 17.0625 C 1.109375 20.152344 1.96875 23.042969 3.460938 25.503906 C 3.460938 25.503906 5.960938 17.417969 10.5625 16.132812 C 12.03125 17.835938 13.296875 18.089844 13.296875 18.089844 C 11.796875 17.074219 11.164062 15.359375 10.929688 14.042969 C 10.859375 13.625 10.828125 13.195312 10.828125 12.757812 C 10.828125 8.316406 14.40625 4.71875 18.816406 4.71875 C 23.226562 4.71875 26.804688 8.316406 26.804688 12.757812 C 26.804688 14.394531 26.304688 15.898438 25.554688 17.238281 C 27.917969 21.257812 24.246094 25.722656 19.066406 28.328125 C 19.136719 28.210938 19.203125 28.089844 19.269531 27.96875 C 21.136719 24.507812 20.085938 21.058594 17.929688 18.90625 C 19.6875 21.402344 20.132812 24.980469 17.703125 28.066406 C 16.789062 29.226562 15.75 30.101562 14.640625 30.746094 C 14.949219 29.746094 15.089844 28.578125 14.9375 27.226562 C 14.9375 27.226562 14.828125 30.007812 12.988281 31.234375 C 11.949219 31.925781 10.574219 32.222656 9.378906 32.320312 C 10.078125 31.445312 10.65625 30.316406 10.984375 28.871094 C 10.984375 28.871094 10.355469 31.191406 7.523438 32 C 6.246094 32.363281 4.945312 32.15625 3.8125 31.925781 C 7.390625 33.832031 11.464844 33.21875 13.273438 32.796875 C 14.542969 33.117188 15.867188 33.289062 17.234375 33.289062 C 26.136719 33.289062 33.355469 26.023438 33.355469 17.0625 C 33.355469 8.097656 26.136719 0.832031 17.234375 0.832031 " fill-opacity="1" fill-rule="nonzero"/></g></svg>