<svg xmlns="http://www.w3.org/2000/svg" xmlns:xlink="http://www.w3.org/1999/xlink" width="45" zoomAndPan="magnify" viewBox="0 0 33.75 33.749999" height="45" preserveAspectRatio="xMidYMid meet" version="1.0"><defs><clipPath id="151e6b9c41"><path d="M 0 5 L 33.5 5 L 33.5 29 L 0 29 Z M 0 5 " clip-rule="nonzero"/></clipPath></defs><g clip-path="url(#151e6b9c41)"><path fill="#8a43f8" d="M 33.414062 10.175781 C 33.414062 10.175781 33.082031 7.824219 32.070312 6.789062 C 30.789062 5.429688 29.347656 5.425781 28.691406 5.34375 C 23.964844 5 16.882812 5 16.882812 5 L 16.867188 5 C 16.867188 5 9.785156 5 5.058594 5.34375 C 4.402344 5.425781 2.960938 5.429688 1.679688 6.789062 C 0.667969 7.824219 0.335938 10.175781 0.335938 10.175781 C 0.335938 10.175781 0 12.9375 0 15.699219 L 0 18.285156 C 0 21.050781 0.335938 23.808594 0.335938 23.808594 C 0.335938 23.808594 0.667969 26.160156 1.679688 27.195312 C 2.964844 28.554688 4.648438 28.511719 5.398438 28.65625 C 8.097656 28.914062 16.875 29 16.875 29 C 16.875 29 23.964844 28.988281 28.691406 28.640625 C 29.351562 28.5625 30.789062 28.554688 32.070312 27.195312 C 33.082031 26.160156 33.414062 23.808594 33.414062 23.808594 C 33.414062 23.808594 33.75 21.046875 33.75 18.285156 L 33.75 15.699219 C 33.75 12.9375 33.414062 10.175781 33.414062 10.175781 Z M 13.390625 21.421875 L 13.390625 11.835938 L 22.507812 16.648438 Z M 13.390625 21.421875 " fill-opacity="1" fill-rule="nonzero"/></g><path fill="#ffffff" d="M 13.390625 11.835938 L 13.390625 21.421875 L 22.507812 16.648438 Z M 13.390625 11.835938 " fill-opacity="1" fill-rule="nonzero"/></svg>